<svg width="27" height="27" viewBox="0 0 27 27" fill="none" xmlns="http://www.w3.org/2000/svg">
<path d="M22.1978 10.3757C26.055 15.8143 23.1043 22.0435 21.6771 24.4735C21.4678 24.8134 21.1868 25.1035 20.8537 25.3233C20.5205 25.5432 20.1434 25.6876 19.7486 25.7464C16.9521 26.2285 9.98998 26.7685 6.24855 21.33C2.56498 16.2 2.71927 7.17426 3.04712 2.87354C3.06005 2.55313 3.14889 2.24036 3.30633 1.96099C3.46377 1.68162 3.6853 1.44363 3.9527 1.26662C4.2201 1.08961 4.52572 0.97864 4.84439 0.942837C5.16306 0.907034 5.48568 0.947425 5.78569 1.06069C9.93212 2.2564 18.5721 5.24569 22.1978 10.3757Z" stroke="#7AAD33" stroke-linecap="round" stroke-linejoin="round"/>
<path d="M9.19928 8.58209C13.6167 13.7878 17.4938 19.4289 20.7707 25.4185" stroke="#7AAD33" stroke-linecap="round" stroke-linejoin="round"/>
</svg>
