<svg width="33" height="33" viewBox="0 0 33 33" fill="none" xmlns="http://www.w3.org/2000/svg">
<mask id="path-1-inside-1_22_53" fill="white">
<path d="M0.375 7.54167V3.95833C0.375 3.00797 0.752525 2.09654 1.42453 1.42453C2.09654 0.752528 3.00797 0.375 3.95833 0.375H7.54167M25.4583 0.375H29.0417C29.992 0.375 30.9035 0.752528 31.5755 1.42453C32.2475 2.09654 32.625 3.00797 32.625 3.95833V7.54167M32.625 25.4583V29.0417C32.625 29.992 32.2475 30.9035 31.5755 31.5755C30.9035 32.2475 29.992 32.625 29.0417 32.625H25.4583M7.54167 32.625H3.95833C3.00797 32.625 2.09654 32.2475 1.42453 31.5755C0.752525 30.9035 0.375 29.992 0.375 29.0417V25.4583"/>
<path d="M27.8937 8.1406C27.8848 7.98481 27.8216 7.83784 27.7161 7.72747C27.6106 7.61711 27.4701 7.55101 27.3212 7.54167C22.1346 7.22252 17.9773 8.86295 16.2006 11.931C15.0179 13.9747 15.0433 16.4715 16.2545 18.846C15.4779 19.776 14.9367 20.8949 14.6802 22.1002L12.6666 19.9928C13.4955 18.28 13.4904 16.4874 12.6341 15.0087C11.3314 12.7587 8.30383 11.5523 4.53088 11.7864C4.38178 11.7957 4.24115 11.862 4.13563 11.9726C4.0301 12.0832 3.96702 12.2304 3.95833 12.3864C3.73663 16.3321 4.88784 19.4992 7.03873 20.8619C7.73924 21.3098 8.54456 21.5462 9.36555 21.5449C10.2158 21.5359 11.052 21.3172 11.8063 20.9066L14.5074 23.7236V26.8641C14.5074 27.0334 14.5716 27.1957 14.6861 27.3154C14.8005 27.4351 14.9557 27.5024 15.1175 27.5024C15.2794 27.5024 15.4346 27.4351 15.549 27.3154C15.6634 27.1957 15.7277 27.0334 15.7277 26.8641V23.7268C15.7236 22.2646 16.22 20.8491 17.1271 19.7364C18.2671 20.3673 19.4376 20.6843 20.5665 20.6843C21.6706 20.6881 22.7542 20.3726 23.6977 19.7726C26.6306 17.9162 28.1988 13.5662 27.8937 8.1406ZM7.67128 19.7694C6.0126 18.7194 5.08919 16.2257 5.15123 13.0342C8.20214 12.9651 10.5829 13.9321 11.5866 15.6672C12.1643 16.664 12.2131 17.8353 11.7432 19.0279L9.04012 16.1992C8.92563 16.0794 8.77034 16.0121 8.60842 16.0121C8.4465 16.0121 8.29121 16.0794 8.17671 16.1992C8.06222 16.3189 7.99789 16.4814 7.99789 16.6507C7.99789 16.8201 8.06222 16.9826 8.17671 17.1023L10.8839 19.9332C9.74387 20.4247 8.62418 20.3747 7.67128 19.7694ZM23.0662 18.6821C21.5672 19.6311 19.7976 19.6587 18.0149 18.7779L23.6855 12.847C23.7422 12.7877 23.7872 12.7173 23.8178 12.6398C23.8485 12.5623 23.8643 12.4793 23.8643 12.3954C23.8643 12.3115 23.8485 12.2285 23.8178 12.151C23.7872 12.0735 23.7422 12.0031 23.6855 11.9438C23.6288 11.8845 23.5615 11.8375 23.4874 11.8054C23.4134 11.7733 23.334 11.7568 23.2538 11.7568C23.1736 11.7568 23.0942 11.7733 23.0202 11.8054C22.9461 11.8375 22.8788 11.8845 22.8221 11.9438L17.1515 17.8758C16.3094 16.0108 16.3379 14.1598 17.243 12.5928C18.7196 10.0395 22.2323 8.63741 26.7008 8.78954C26.8462 13.4598 25.5049 17.1364 23.0662 18.6821Z"/>
</mask>
<path d="M-0.625 7.54167C-0.625 8.09395 -0.177285 8.54167 0.375 8.54167C0.927285 8.54167 1.375 8.09395 1.375 7.54167H-0.625ZM3.95833 0.375L3.95833 -0.625L3.95833 0.375ZM7.54167 1.375C8.09396 1.375 8.54167 0.927285 8.54167 0.375C8.54167 -0.177285 8.09396 -0.625 7.54167 -0.625V1.375ZM25.4583 -0.625C24.9061 -0.625 24.4583 -0.177285 24.4583 0.375C24.4583 0.927285 24.9061 1.375 25.4583 1.375V-0.625ZM29.0417 0.375V-0.625V0.375ZM31.625 7.54167C31.625 8.09395 32.0727 8.54167 32.625 8.54167C33.1773 8.54167 33.625 8.09395 33.625 7.54167H31.625ZM33.625 25.4583C33.625 24.906 33.1773 24.4583 32.625 24.4583C32.0727 24.4583 31.625 24.906 31.625 25.4583H33.625ZM25.4583 31.625C24.9061 31.625 24.4583 32.0727 24.4583 32.625C24.4583 33.1773 24.9061 33.625 25.4583 33.625V31.625ZM7.54167 33.625C8.09396 33.625 8.54167 33.1773 8.54167 32.625C8.54167 32.0727 8.09396 31.625 7.54167 31.625V33.625ZM0.375 29.0417H-0.625H0.375ZM1.375 25.4583C1.375 24.906 0.927285 24.4583 0.375 24.4583C-0.177285 24.4583 -0.625 24.906 -0.625 25.4583H1.375ZM27.8937 8.1406L28.8921 8.08446L28.8921 8.08336L27.8937 8.1406ZM27.3212 7.54167L27.3838 6.54363L27.3826 6.54355L27.3212 7.54167ZM16.2006 11.931L15.3352 11.4299L15.3351 11.4301L16.2006 11.931ZM16.2545 18.846L17.0221 19.4869C17.2788 19.1794 17.3273 18.7484 17.1453 18.3916L16.2545 18.846ZM14.6802 22.1002L13.9572 22.7911C14.2133 23.0591 14.5966 23.1635 14.9532 23.0623C15.3098 22.9611 15.5812 22.6709 15.6584 22.3083L14.6802 22.1002ZM12.6666 19.9928L11.7665 19.5572C11.5847 19.9328 11.6553 20.3819 11.9436 20.6836L12.6666 19.9928ZM12.6341 15.0087L11.7687 15.5098L11.7687 15.5098L12.6341 15.0087ZM4.53088 11.7864L4.46896 10.7883L4.46815 10.7883L4.53088 11.7864ZM3.95833 12.3864L4.95675 12.4425L4.95678 12.442L3.95833 12.3864ZM7.03873 20.8619L7.57739 20.0194L7.57393 20.0172L7.03873 20.8619ZM9.36555 21.5449L9.3671 22.545L9.37621 22.5449L9.36555 21.5449ZM11.8063 20.9066L12.5281 20.2145C12.2159 19.8889 11.7244 19.8127 11.3282 20.0283L11.8063 20.9066ZM14.5074 23.7236H15.5074C15.5074 23.4657 15.4077 23.2177 15.2292 23.0316L14.5074 23.7236ZM15.7277 23.7268L16.7277 23.7268L16.7277 23.7241L15.7277 23.7268ZM17.1271 19.7364L17.6112 18.8614C17.1879 18.6272 16.6577 18.7296 16.352 19.1045L17.1271 19.7364ZM20.5665 20.6843L20.5699 19.6843H20.5665V20.6843ZM23.6977 19.7726L23.1629 18.9276L23.1611 18.9287L23.6977 19.7726ZM7.67128 19.7694L8.20748 18.9253L8.20615 18.9244L7.67128 19.7694ZM5.15123 13.0342L5.12857 12.0345C4.59279 12.0466 4.16183 12.479 4.15142 13.0148L5.15123 13.0342ZM11.5866 15.6672L10.721 16.168L10.7214 16.1686L11.5866 15.6672ZM11.7432 19.0279L11.0202 19.7188C11.2559 19.9654 11.601 20.0748 11.9357 20.0092C12.2704 19.9435 12.5486 19.7118 12.6736 19.3944L11.7432 19.0279ZM9.04012 16.1992L9.7631 15.5083L9.76297 15.5081L9.04012 16.1992ZM7.99789 16.6507L6.99789 16.6507L7.99789 16.6507ZM8.17671 17.1023L7.45386 17.7934L7.45399 17.7935L8.17671 17.1023ZM10.8839 19.9332L11.2798 20.8515C11.5805 20.7218 11.7987 20.4532 11.8639 20.1322C11.9291 19.8113 11.833 19.4788 11.6066 19.2421L10.8839 19.9332ZM23.0662 18.6821L23.601 19.5271L23.6015 19.5268L23.0662 18.6821ZM18.0149 18.7779L17.2921 18.0868C17.0721 18.3169 16.9748 18.638 17.0301 18.9515C17.0853 19.2649 17.2865 19.5334 17.5719 19.6744L18.0149 18.7779ZM23.6855 12.847L24.4083 13.5381L24.4084 13.538L23.6855 12.847ZM23.8643 12.3954L22.8643 12.3954L23.8643 12.3954ZM23.2538 11.7568L23.2538 12.7568L23.2538 11.7568ZM22.8221 11.9438L23.5449 12.6348L23.5449 12.6348L22.8221 11.9438ZM17.1515 17.8758L16.2401 18.2873C16.3769 18.5902 16.6553 18.8054 16.9829 18.8614C17.3106 18.9175 17.6446 18.807 17.8743 18.5668L17.1515 17.8758ZM17.243 12.5928L16.3774 12.0921L16.3771 12.0926L17.243 12.5928ZM26.7008 8.78954L27.7003 8.75842C27.6839 8.23167 27.2615 7.80805 26.7348 7.79012L26.7008 8.78954ZM1.375 7.54167V3.95833H-0.625V7.54167H1.375ZM1.375 3.95833C1.375 3.27319 1.64717 2.61611 2.13164 2.13164L0.717423 0.717427C-0.14212 1.57697 -0.625 2.74276 -0.625 3.95833H1.375ZM2.13164 2.13164C2.61611 1.64717 3.27319 1.375 3.95833 1.375L3.95833 -0.625C2.74275 -0.625 1.57696 -0.142115 0.717423 0.717427L2.13164 2.13164ZM3.95833 1.375H7.54167V-0.625H3.95833V1.375ZM25.4583 1.375H29.0417V-0.625H25.4583V1.375ZM29.0417 1.375C29.7268 1.375 30.3839 1.64717 30.8684 2.13164L32.2826 0.717427C31.423 -0.142115 30.2573 -0.625 29.0417 -0.625V1.375ZM30.8684 2.13164C31.3528 2.61611 31.625 3.27319 31.625 3.95833H33.625C33.625 2.74276 33.1421 1.57697 32.2826 0.717427L30.8684 2.13164ZM31.625 3.95833V7.54167H33.625V3.95833H31.625ZM31.625 25.4583V29.0417H33.625V25.4583H31.625ZM31.625 29.0417C31.625 29.7268 31.3528 30.3839 30.8684 30.8684L32.2826 32.2826C33.1421 31.423 33.625 30.2572 33.625 29.0417H31.625ZM30.8684 30.8684C30.3839 31.3528 29.7268 31.625 29.0417 31.625V33.625C30.2573 33.625 31.423 33.1421 32.2826 32.2826L30.8684 30.8684ZM29.0417 31.625H25.4583V33.625H29.0417V31.625ZM7.54167 31.625H3.95833V33.625H7.54167V31.625ZM3.95833 31.625C3.27319 31.625 2.61611 31.3528 2.13164 30.8684L0.717423 32.2826C1.57696 33.1421 2.74275 33.625 3.95833 33.625V31.625ZM2.13164 30.8684C1.64717 30.3839 1.375 29.7268 1.375 29.0417H-0.625C-0.625 30.2572 -0.14212 31.423 0.717423 32.2826L2.13164 30.8684ZM1.375 29.0417V25.4583H-0.625V29.0417H1.375ZM28.8921 8.08336C28.8699 7.69602 28.7126 7.32274 28.439 7.03647L26.9933 8.41848C26.9306 8.35293 26.8997 8.2736 26.8954 8.19785L28.8921 8.08336ZM28.439 7.03647C28.1642 6.74908 27.7899 6.56911 27.3838 6.54363L27.2585 8.5397C27.1503 8.53291 27.057 8.48515 26.9933 8.41848L28.439 7.03647ZM27.3826 6.54355C22.0166 6.21336 17.3843 7.89138 15.3352 11.4299L17.066 12.4322C18.5702 9.83452 22.2527 8.23167 27.2598 8.53978L27.3826 6.54355ZM15.3351 11.4301C13.9568 13.8117 14.0232 16.6725 15.3637 19.3004L17.1453 18.3916C16.0634 16.2705 16.0789 14.1377 17.0661 12.432L15.3351 11.4301ZM15.4869 18.205C14.6041 19.2622 13.9918 20.5303 13.7021 21.8922L15.6584 22.3083C15.8815 21.2594 16.3517 20.2897 17.0221 19.4869L15.4869 18.205ZM15.4033 21.4094L13.3897 19.302L11.9436 20.6836L13.9572 22.7911L15.4033 21.4094ZM13.5668 20.4284C14.5188 18.4611 14.5452 16.3134 13.4995 14.5076L11.7687 15.5098C12.4356 16.6615 12.4721 18.099 11.7665 19.5572L13.5668 20.4284ZM13.4995 14.5077C11.9261 11.7903 8.42706 10.5428 4.46896 10.7883L4.59279 12.7844C8.1806 12.5619 10.7366 13.7272 11.7687 15.5098L13.4995 14.5077ZM4.46815 10.7883C4.06157 10.8139 3.68693 10.9943 3.41217 11.2822L4.85909 12.6629C4.79538 12.7297 4.70199 12.7776 4.5936 12.7844L4.46815 10.7883ZM3.41217 11.2822C3.13846 11.569 2.98149 11.9429 2.95988 12.3307L4.95678 12.442C4.95255 12.5178 4.92175 12.5973 4.85909 12.6629L3.41217 11.2822ZM2.9599 12.3303C2.72997 16.4226 3.89945 20.0568 6.50352 21.7067L7.57393 20.0172C5.87623 18.9416 4.74329 16.2417 4.95675 12.4425L2.9599 12.3303ZM6.50007 21.7045C7.35969 22.2541 8.35211 22.5465 9.3671 22.5449L9.36401 20.5449C8.73702 20.5459 8.1188 20.3656 7.57739 20.0194L6.50007 21.7045ZM9.37621 22.5449C10.3915 22.534 11.388 22.2728 12.2843 21.7849L11.3282 20.0283C10.716 20.3615 10.04 20.5377 9.3549 20.545L9.37621 22.5449ZM11.0845 21.5987L13.7855 24.4157L15.2292 23.0316L12.5281 20.2145L11.0845 21.5987ZM13.5074 23.7236V26.8641H15.5074V23.7236H13.5074ZM13.5074 26.8641C13.5074 27.2844 13.6666 27.6961 13.9632 28.0064L15.4089 26.6244C15.4767 26.6954 15.5074 26.7823 15.5074 26.8641H13.5074ZM13.9632 28.0064C14.2613 28.3183 14.6756 28.5024 15.1175 28.5024V26.5024C15.2358 26.5024 15.3397 26.552 15.4089 26.6244L13.9632 28.0064ZM15.1175 28.5024C15.5595 28.5024 15.9737 28.3183 16.2718 28.0064L14.8261 26.6244C14.8954 26.552 14.9992 26.5024 15.1175 26.5024V28.5024ZM16.2718 28.0064C16.5685 27.6961 16.7277 27.2844 16.7277 26.8641H14.7277C14.7277 26.7823 14.7583 26.6954 14.8261 26.6244L16.2718 28.0064ZM16.7277 26.8641V23.7268H14.7277V26.8641H16.7277ZM16.7277 23.7241C16.7243 22.4883 17.1441 21.2981 17.9022 20.3683L16.352 19.1045C15.2959 20.4 14.723 22.0409 14.7277 23.7296L16.7277 23.7241ZM16.6429 20.6114C17.9124 21.3139 19.2481 21.6843 20.5665 21.6843V19.6843C19.6272 19.6843 18.6218 19.4206 17.6112 18.8614L16.6429 20.6114ZM20.563 21.6843C21.8609 21.6887 23.1316 21.3176 24.2343 20.6164L23.1611 18.9287C22.3768 19.4275 21.4802 19.6874 20.5699 19.6843L20.563 21.6843ZM24.2325 20.6175C27.6217 18.4724 29.2052 13.6517 28.8921 8.08446L26.8953 8.19675C27.1924 13.4806 25.6396 17.36 23.1629 18.9276L24.2325 20.6175ZM8.20615 18.9244C6.99738 18.1593 6.09127 16.1288 6.15104 13.0537L4.15142 13.0148C4.08712 16.3227 5.02782 19.2795 7.13641 20.6143L8.20615 18.9244ZM5.17389 14.034C8.07181 13.9683 9.98607 14.8975 10.721 16.168L12.4522 15.1665C11.1797 12.9667 8.33247 11.9619 5.12857 12.0345L5.17389 14.034ZM10.7214 16.1686C11.1246 16.8644 11.1873 17.7108 10.8128 18.6613L12.6736 19.3944C13.2388 17.9599 13.2039 16.4637 12.4518 15.1658L10.7214 16.1686ZM12.4662 18.337L9.7631 15.5083L8.31714 16.89L11.0202 19.7188L12.4662 18.337ZM9.76297 15.5081C9.46478 15.1962 9.05047 15.0121 8.60842 15.0121L8.60842 17.0121C8.49021 17.0121 8.38648 16.9626 8.31727 16.8902L9.76297 15.5081ZM8.60842 15.0121C8.16639 15.0121 7.75207 15.1962 7.45386 15.5081L8.89956 16.8902C8.83034 16.9626 8.72661 17.0121 8.60842 17.0121L8.60842 15.0121ZM7.45386 15.5081C7.15713 15.8186 6.99789 16.2303 6.99789 16.6507L8.99789 16.6507C8.99789 16.7324 8.9673 16.8193 8.89956 16.8902L7.45386 15.5081ZM6.99789 16.6507C6.99789 17.0712 7.15713 17.4829 7.45386 17.7934L8.89956 16.4113C8.9673 16.4822 8.99789 16.5691 8.99789 16.6507L6.99789 16.6507ZM7.45399 17.7935L10.1612 20.6244L11.6066 19.2421L8.89943 16.4112L7.45399 17.7935ZM10.488 19.0149C9.6089 19.3939 8.84384 19.3295 8.20748 18.9253L7.13508 20.6135C8.40453 21.4199 9.87883 21.4555 11.2798 20.8515L10.488 19.0149ZM22.5313 17.8372C21.3703 18.5722 19.9769 18.6319 18.4579 17.8814L17.5719 19.6744C19.6184 20.6856 21.764 20.69 23.601 19.5271L22.5313 17.8372ZM18.7377 19.469L24.4083 13.5381L22.9627 12.1559L17.2921 18.0868L18.7377 19.469ZM24.4084 13.538C24.5556 13.3839 24.6702 13.2035 24.7476 13.008L22.8881 12.2717C22.9041 12.2311 22.9288 12.1915 22.9627 12.156L24.4084 13.538ZM24.7476 13.008C24.825 12.8125 24.8643 12.6045 24.8643 12.3954L22.8643 12.3954C22.8643 12.354 22.8721 12.3121 22.8881 12.2717L24.7476 13.008ZM24.8643 12.3954C24.8643 12.1863 24.825 11.9783 24.7476 11.7829L22.8881 12.5192C22.8721 12.4787 22.8643 12.4368 22.8643 12.3954L24.8643 12.3954ZM24.7476 11.7829C24.6702 11.5874 24.5556 11.4069 24.4084 11.2528L22.9627 12.6348C22.9288 12.5994 22.9041 12.5597 22.8881 12.5192L24.7476 11.7829ZM24.4084 11.2528C24.261 11.0987 24.0836 10.9738 23.885 10.8878L23.0899 12.7229C23.0394 12.7011 22.9966 12.6704 22.9627 12.6348L24.4084 11.2528ZM23.885 10.8878C23.6864 10.8017 23.4717 10.7568 23.2538 10.7568L23.2538 12.7568C23.1962 12.7568 23.1404 12.7448 23.0899 12.7229L23.885 10.8878ZM23.2538 10.7568C23.0359 10.7568 22.8213 10.8017 22.6226 10.8878L23.4177 12.7229C23.3672 12.7448 23.3114 12.7568 23.2538 12.7568V10.7568ZM22.6226 10.8878C22.424 10.9738 22.2466 11.0987 22.0992 11.2528L23.5449 12.6348C23.511 12.6704 23.4682 12.7011 23.4177 12.7229L22.6226 10.8878ZM22.0992 11.2528L16.4286 17.1847L17.8743 18.5668L23.5449 12.6348L22.0992 11.2528ZM18.0629 17.4642C17.3323 15.8463 17.3888 14.3396 18.1089 13.0929L16.3771 12.0926C15.287 13.9799 15.2865 16.1754 16.2401 18.2873L18.0629 17.4642ZM18.1087 13.0934C19.3138 11.0096 22.3541 9.64214 26.6668 9.78896L26.7348 7.79012C22.1104 7.63269 18.1255 9.06949 16.3774 12.0921L18.1087 13.0934ZM25.7013 8.82067C25.843 13.3701 24.5161 16.5791 22.5308 17.8375L23.6015 19.5268C26.4936 17.6936 27.8495 13.5495 27.7003 8.75842L25.7013 8.82067Z" fill="#7AAD33" mask="url(#path-1-inside-1_22_53)"/>
</svg>
