<svg width="35" height="37" viewBox="0 0 35 37" fill="none" xmlns="http://www.w3.org/2000/svg">
<path d="M17.5 23.625C20.3305 23.625 22.625 21.3305 22.625 18.5C22.625 15.6695 20.3305 13.375 17.5 13.375C14.6695 13.375 12.375 15.6695 12.375 18.5C12.375 21.3305 14.6695 23.625 17.5 23.625Z" stroke="black" stroke-width="1.5"/>
<path d="M20.5152 1.67635C19.8883 1.41669 19.0922 1.41669 17.5 1.41669C15.9079 1.41669 15.1118 1.41669 14.4848 1.67635C14.07 1.84806 13.6931 2.09984 13.3756 2.4173C13.0582 2.73475 12.8064 3.11166 12.6347 3.52648C12.4775 3.90744 12.4143 4.35331 12.3904 5.00077C12.3798 5.46884 12.2503 5.92652 12.0143 6.33083C11.7782 6.73514 11.4432 7.07282 11.0408 7.31215C10.6324 7.54113 10.1724 7.66253 9.70412 7.66492C9.23585 7.66731 8.77465 7.55062 8.36387 7.32581C7.78987 7.02173 7.37475 6.85431 6.96304 6.79965C6.065 6.68155 5.15682 6.92488 4.43812 7.47615C3.9017 7.89127 3.50195 8.57973 2.70587 9.95835C1.90979 11.337 1.51004 12.0254 1.42291 12.7002C1.36421 13.1452 1.39373 13.5973 1.50981 14.0308C1.62589 14.4644 1.82623 14.8708 2.09941 15.2269C2.35225 15.5549 2.70587 15.8299 3.25425 16.175C4.06229 16.6824 4.58162 17.5468 4.58162 18.5C4.58162 19.4533 4.06229 20.3177 3.25425 20.8234C2.70587 21.1701 2.35054 21.4452 2.09941 21.7732C1.82623 22.1293 1.62589 22.5357 1.50981 22.9692C1.39373 23.4027 1.36421 23.8549 1.42291 24.2998C1.51175 24.9729 1.90979 25.6631 2.70416 27.0417C3.50195 28.4203 3.9 29.1088 4.43812 29.5239C4.7942 29.7971 5.20061 29.9974 5.63413 30.1135C6.06766 30.2296 6.51981 30.2591 6.96475 30.2004C7.37475 30.1457 7.78987 29.9783 8.36387 29.6742C8.77465 29.4494 9.23585 29.3327 9.70412 29.3351C10.1724 29.3375 10.6324 29.4589 11.0408 29.6879C11.866 30.1662 12.3562 31.046 12.3904 31.9993C12.4143 32.6484 12.4758 33.0926 12.6347 33.4736C12.8064 33.8884 13.0582 34.2653 13.3756 34.5827C13.6931 34.9002 14.07 35.152 14.4848 35.3237C15.1118 35.5834 15.9079 35.5834 17.5 35.5834C19.0922 35.5834 19.8883 35.5834 20.5152 35.3237C20.9301 35.152 21.307 34.9002 21.6244 34.5827C21.9419 34.2653 22.1937 33.8884 22.3654 33.4736C22.5225 33.0926 22.5857 32.6484 22.6097 31.9993C22.6438 31.046 23.1341 30.1645 23.9592 29.6879C24.3677 29.4589 24.8277 29.3375 25.296 29.3351C25.7642 29.3327 26.2254 29.4494 26.6362 29.6742C27.2102 29.9783 27.6253 30.1457 28.0353 30.2004C28.4803 30.2591 28.9324 30.2296 29.3659 30.1135C29.7995 29.9974 30.2059 29.7971 30.562 29.5239C31.1001 29.1105 31.4981 28.4203 32.2942 27.0417C33.0903 25.6631 33.49 24.9746 33.5772 24.2998C33.6359 23.8549 33.6063 23.4027 33.4903 22.9692C33.3742 22.5357 33.1738 22.1293 32.9007 21.7732C32.6478 21.4452 32.2942 21.1701 31.7458 20.8251C31.3456 20.5818 31.0138 20.2408 30.7816 19.8341C30.5494 19.4274 30.4245 18.9683 30.4185 18.5C30.4185 17.5468 30.9378 16.6824 31.7458 16.1767C32.2942 15.8299 32.6495 15.5549 32.9007 15.2269C33.1738 14.8708 33.3742 14.4644 33.4903 14.0308C33.6063 13.5973 33.6359 13.1452 33.5772 12.7002C33.4883 12.0271 33.0903 11.337 32.2959 9.95835C31.4981 8.57973 31.1001 7.89127 30.562 7.47615C30.2059 7.20297 29.7995 7.00262 29.3659 6.88654C28.9324 6.77047 28.4803 6.74094 28.0353 6.79965C27.6253 6.85431 27.2102 7.02173 26.6345 7.32581C26.2239 7.55031 25.763 7.66683 25.2951 7.66444C24.8272 7.66205 24.3675 7.54083 23.9592 7.31215C23.5569 7.07282 23.2219 6.73514 22.9858 6.33083C22.7497 5.92652 22.6203 5.46884 22.6097 5.00077C22.5857 4.3516 22.5242 3.90744 22.3654 3.52648C22.1937 3.11166 21.9419 2.73475 21.6244 2.4173C21.307 2.09984 20.9301 1.84806 20.5152 1.67635Z" stroke="black" stroke-width="1.5"/>
</svg>
