<svg width="26" height="21" viewBox="0 0 26 21" fill="none" xmlns="http://www.w3.org/2000/svg">
<path d="M25.8588 9.68416L16.2294 0.13996C16.162 0.0731449 16.0762 0.0276346 15.9828 0.00919024C15.8893 -0.00925412 15.7925 0.000196846 15.7044 0.0363467C15.6164 0.0724965 15.5412 0.13372 15.4883 0.212266C15.4354 0.290811 15.4072 0.383148 15.4073 0.477586V5.73763C8.9074 6.02873 0.911376 12.1263 0.00741441 19.9346C-0.0179006 20.134 0.0219913 20.3362 0.121225 20.5114C0.220458 20.6866 0.373797 20.8257 0.558699 20.9081C0.687011 20.9684 0.827175 20.9997 0.969153 21C1.1002 20.9996 1.22975 20.9724 1.34968 20.9201C1.46962 20.8677 1.57734 20.7913 1.66608 20.6958C3.05392 19.2319 8.08048 14.5243 15.4073 14.325V19.566C15.4072 19.6604 15.4354 19.7528 15.4883 19.8313C15.5412 19.9098 15.6164 19.9711 15.7044 20.0072C15.7925 20.0434 15.8893 20.0528 15.9828 20.0344C16.0762 20.0159 16.162 19.9704 16.2294 19.9036L25.8588 10.3594C25.9036 10.3151 25.9391 10.2625 25.9633 10.2045C25.9875 10.1466 26 10.0845 26 10.0218C26 9.95907 25.9875 9.89697 25.9633 9.83904C25.9391 9.78111 25.9036 9.72848 25.8588 9.68416ZM16.3702 18.4123V13.8395C16.3702 13.7129 16.3195 13.5915 16.2292 13.502C16.1389 13.4125 16.0164 13.3623 15.8887 13.3623C12.5919 13.3623 9.37925 14.2177 6.33876 15.9034C4.34845 17.0097 2.53649 18.4051 0.963134 20.0432C1.36757 16.5584 3.31632 13.1857 6.4519 10.5503C9.3323 8.12607 12.8591 6.68132 15.8887 6.68132C16.0164 6.68132 16.1389 6.63104 16.2292 6.54154C16.3195 6.45205 16.3702 6.33067 16.3702 6.20411V1.63005L24.8369 10.0218L16.3702 18.4123Z" fill="black"/>
</svg>
